{
  "accessors": [
    {
      "bufferView": 2,
      "componentType": 5126,
      "count": 65532,
      "max": [
        182.7657470703125,
        25.475862503051758,
        -0.18930795788764954
      ],
      "min": [
        180.43936157226563,
        23.222309112548828,
        -2.895468235015869
      ],
      "type": "VEC3"
    },
    {
      "bufferView": 2,
      "byteOffset": 786384,
      "componentType": 5126,
      "count": 65532,
      "max": [
        0.9999514818191528,
        0.9999950528144836,
        0.9997247457504272
      ],
      "min": [
        -0.999991774559021,
        -0.9999895095825195,
        -0.9999535083770752
      ],
      "type": "VEC3"
    },
    {
      "bufferView": 1,
      "componentType": 5126,
      "count": 65532,
      "max": [
        0.9999993443489075,
        0.9999993443489075
      ],
      "min": [
        0.0,
        0.0
      ],
      "type": "VEC2"
    },
    {
      "bufferView": 0,
      "componentType": 5125,
      "count": 65532,
      "type": "SCALAR"
    },
    {
      "bufferView": 2,
      "byteOffset": 1572768,
      "componentType": 5126,
      "count": 56868,
      "max": [
        182.7657470703125,
        25.475862503051758,
        -0.19930791854858398
      ],
      "min": [
        180.64718627929688,
        23.23015785217285,
        -2.895468235015869
      ],
      "type": "VEC3"
    },
    {
      "bufferView": 2,
      "byteOffset": 2255184,
      "componentType": 5126,
      "count": 56868,
      "max": [
        0.9999927878379822,
        0.9999995827674866,
        0.9343790411949158
      ],
      "min": [
        -0.9999948143959045,
        -0.999965250492096,
        -0.9997252225875854
      ],
      "type": "VEC3"
    },
    {
      "bufferView": 1,
      "byteOffset": 524256,
      "componentType": 5126,
      "count": 56868,
      "max": [
        0.9999993443489075,
        0.9999993443489075
      ],
      "min": [
        0.0,
        0.0
      ],
      "type": "VEC2"
    },
    {
      "bufferView": 0,
      "byteOffset": 262128,
      "componentType": 5125,
      "count": 56868,
      "type": "SCALAR"
    }
  ],
  "asset": {
    "extras": {
      "author": "remi136 (https://sketchfab.com/rahmaahmed1306)",
      "license": "CC-BY-4.0 (http://creativecommons.org/licenses/by/4.0/)",
      "source": "https://sketchfab.com/3d-models/ghost-1dd1cdac701b42e6ac41bdc194c03139",
      "title": "ghost"
    },
    "generator": "Sketchfab-15.44.0",
    "version": "2.0"
  },
  "bufferViews": [
    {
      "buffer": 0,
      "byteLength": 489600,
      "name": "floatBufferViews",
      "target": 34963
    },
    {
      "buffer": 0,
      "byteLength": 979200,
      "byteOffset": 489600,
      "byteStride": 8,
      "name": "floatBufferViews",
      "target": 34962
    },
    {
      "buffer": 0,
      "byteLength": 2937600,
      "byteOffset": 1468800,
      "byteStride": 12,
      "name": "floatBufferViews",
      "target": 34962
    }
  ],
  "buffers": [
    {
      "byteLength": 4406400,
      "uri": "scene.bin"
    }
  ],
  "extensionsUsed": [
    "KHR_texture_transform"
  ],
  "images": [
    {
      "uri": "textures/Material_27_baseColor.jpeg"
    }
  ],
  "materials": [
    {
      "doubleSided": true,
      "name": "Material_27",
      "pbrMetallicRoughness": {
        "baseColorTexture": {
          "extensions": {
            "KHR_texture_transform": {
              "offset": [
                0.013,
                -0.011239246810663905
              ],
              "scale": [
                1,
                1.3999999999999997
              ]
            }
          },
          "index": 0
        },
        "metallicFactor": 0.0,
        "roughnessFactor": 0.6
      }
    }
  ],
  "meshes": [
    {
      "name": "Plane003_Material #27_0",
      "primitives": [
        {
          "attributes": {
            "NORMAL": 1,
            "POSITION": 0,
            "TEXCOORD_0": 2
          },
          "indices": 3,
          "material": 0,
          "mode": 4
        }
      ]
    },
    {
      "name": "Plane003_Material #27_0",
      "primitives": [
        {
          "attributes": {
            "NORMAL": 5,
            "POSITION": 4,
            "TEXCOORD_0": 6
          },
          "indices": 7,
          "material": 0,
          "mode": 4
        }
      ]
    }
  ],
  "nodes": [
    {
      "children": [
        1
      ],
      "matrix": [
        1.0,
        0.0,
        0.0,
        0.0,
        0.0,
        -5.053215392444312e-16,
        1.0,
        0.0,
        0.0,
        -1.0,
        -5.053215392444312e-16,
        0.0,
        0.0,
        0.0,
        0.0,
        1.0
      ],
      "name": "Sketchfab_model"
    },
    {
      "children": [
        2
      ],
      "matrix": [
        1.0,
        0.0,
        0.0,
        0.0,
        0.0,
        -1.0,
        0.0,
        0.0,
        0.0,
        0.0,
        -1.0,
        0.0,
        0.0,
        0.0,
        0.0,
        1.0
      ],
      "name": "203af4827b2f413a9d745952b434392b.fbx"
    },
    {
      "children": [
        3
      ],
      "name": "RootNode"
    },
    {
      "children": [
        4,
        5
      ],
      "matrix": [
        0.5528069734573364,
        0.0,
        0.0,
        0.0,
        0.0,
        0.5528069734573364,
        0.0,
        0.0,
        0.0,
        0.0,
        1.4266250133514404,
        0.0,
        -100.68669128417969,
        -13.966930389404297,
        4.476362228393555,
        1.0
      ],
      "name": "Plane003"
    },
    {
      "mesh": 0,
      "name": "Plane003_Material #27_0"
    },
    {
      "mesh": 1,
      "name": "Plane003_Material #27_0"
    }
  ],
  "samplers": [
    {
      "magFilter": 9729,
      "minFilter": 9987,
      "wrapS": 10497,
      "wrapT": 10497
    }
  ],
  "scene": 0,
  "scenes": [
    {
      "name": "Sketchfab_Scene",
      "nodes": [
        0
      ]
    }
  ],
  "textures": [
    {
      "sampler": 0,
      "source": 0
    }
  ]
}
